<svg width="38" height="38" viewBox="0 0 38 38" fill="none" xmlns="http://www.w3.org/2000/svg">
<path d="M26.9555 0H11.0445C4.12506 0 0 4.11478 0 11.017V26.8883C0 33.7905 4.12506 37.9053 11.0445 37.9053H26.9555C33.8749 37.9053 38 33.7905 38 26.8883V11.017C38 4.11478 33.8749 0 26.9555 0Z" fill="white"/>
<path d="M19 12.87C18.93 12.87 18.86 12.87 18.8 12.88V9.00999C18.87 8.99999 18.93 9 19 9C21.26 9 23.2 9.69 24.79 10.86C25.29 11.22 25.33 11.95 24.89 12.38L23.5 13.74C23.16 14.07 22.64 14.13 22.25 13.86C21.5 13.34 20.43 12.87 19 12.87Z" fill="#282828"/>
<path d="M28.6001 19.2199C28.6001 22.2699 27.51 24.8299 25.62 26.5799C23.97 28.1099 21.7 28.9999 19 28.9999C18.93 28.9999 18.87 28.9999 18.8 28.9899V25.1199C18.87 25.1299 18.93 25.1299 19 25.1299C20.49 25.1299 21.62 24.7199 22.47 24.1299C23.8 23.1999 24.4 21.8099 24.51 20.8899H20C19.45 20.8899 19 20.4399 19 19.8899V18.1799C19 17.6299 19.45 17.1799 20 17.1799H27.55C28.06 17.1799 28.49 17.5599 28.54 18.0699C28.58 18.4199 28.6001 18.7899 28.6001 19.2199Z" fill="#171717"/>
<path d="M13.3 17.02C13.1 17.64 12.98 18.31 12.98 19C12.98 19.69 13.1 20.35 13.31 20.98C14.09 23.33 16.25 25.04 18.8 25.12V28.99C14.98 28.92 11.69 26.7 10.08 23.49H10.07C9.39 22.13 9 20.61 9 19C9 17.39 9.39 15.87 10.07 14.51C11.68 11.3 14.97 9.08001 18.8 9.01001V12.88C16.44 12.95 14.43 14.41 13.51 16.48C13.43 16.66 13.36 16.84 13.3 17.02Z" fill="#9D9D9D"/>
</svg>
