<svg width="38" height="38" viewBox="0 0 38 38" fill="none" xmlns="http://www.w3.org/2000/svg">
<path d="M26.9555 0H11.0445C4.12506 0 0 4.11477 0 11.017V26.8883C0 33.7905 4.12506 37.9053 11.0445 37.9053H26.9555C33.8749 37.9053 38 33.7905 38 26.8883V11.017C38 4.11477 33.8749 0 26.9555 0Z" fill="white"/>
<path fill-rule="evenodd" clip-rule="evenodd" d="M26.469 26.16C27.059 25.26 27.279 24.8 27.729 23.79C24.409 22.53 23.879 17.8 27.159 15.99C26.159 14.73 24.749 14 23.419 14C22.459 14 21.799 14.25 21.209 14.48C20.709 14.67 20.259 14.84 19.699 14.84C19.099 14.84 18.569 14.65 18.009 14.45C17.409 14.23 16.769 14 15.969 14C14.479 14 12.889 14.91 11.879 16.47C10.459 18.67 10.709 22.79 12.999 26.31C13.819 27.57 14.919 28.98 16.349 29C16.949 29.01 17.339 28.83 17.769 28.64C18.259 28.42 18.789 28.18 19.719 28.18C20.649 28.17 21.169 28.42 21.659 28.64C22.079 28.83 22.459 29.01 23.049 29C24.489 28.98 25.649 27.42 26.469 26.16Z" fill="#292D32"/>
<path fill-rule="evenodd" clip-rule="evenodd" d="M23.2096 9C23.3696 10.1 22.9196 11.19 22.3296 11.95C21.6996 12.77 20.5996 13.41 19.5396 13.37C19.3496 12.31 19.8396 11.22 20.4396 10.49C21.1096 9.69 22.2396 9.07 23.2096 9Z" fill="#292D32"/>
</svg>
