<svg width="38" height="38" viewBox="0 0 38 38" fill="none" xmlns="http://www.w3.org/2000/svg">
<path d="M26.9555 0H11.0445C4.12506 0 0 4.11477 0 11.017V26.8883C0 33.7905 4.12506 37.9053 11.0445 37.9053H26.9555C33.8749 37.9053 38 33.7905 38 26.8883V11.017C38 4.11477 33.8749 0 26.9555 0Z" fill="#F3F3F3"/>
<path d="M22.6407 13.8044L22.7357 19.3982L27.7352 19.3223C28.0964 19.3223 28.3625 19.6447 28.3055 19.986L27.6402 23.6078C27.5831 23.8732 27.3551 24.0629 27.0889 24.0818L22.8118 24.1577L23.0399 37.9052L17.337 38L17.1089 24.2525L13.8773 24.3094C13.5541 24.3094 13.307 24.0629 13.307 23.7405L13.25 20.1377C13.25 19.8154 13.4971 19.5688 13.8203 19.5688L17.0519 19.512L16.9568 13.3493C16.8998 10.2016 19.4091 7.62271 22.5647 7.56583L27.6972 7.48997C28.0203 7.48997 28.2675 7.73649 28.2675 8.05884L28.3436 12.6098C28.3436 12.9321 28.0964 13.1786 27.7732 13.1786L23.211 13.2545C22.8878 13.2355 22.6407 13.501 22.6407 13.8044Z" fill="#282828"/>
</svg>
