<svg width="38" height="38" viewBox="0 0 38 38" fill="none" xmlns="http://www.w3.org/2000/svg">
<path opacity="0.4" d="M10.7033 34.8333H27.2967C31.6667 34.8333 33.4083 32.1575 33.6142 28.8958L34.4375 15.8175C34.6592 12.3975 31.9358 9.5 28.5 9.5C27.5342 9.5 26.6475 8.94584 26.2042 8.09084L25.0642 5.79501C24.3358 4.35417 22.4358 3.16667 20.8208 3.16667H17.195C15.5642 3.16667 13.6642 4.35417 12.9358 5.79501L11.7958 8.09084C11.3525 8.94584 10.4658 9.5 9.5 9.5C6.06417 9.5 3.34083 12.3975 3.5625 15.8175L4.38583 28.8958C4.57583 32.1575 6.33333 34.8333 10.7033 34.8333Z" fill="white"/>
<path d="M21.375 13.8542H16.625C15.9758 13.8542 15.4375 13.3158 15.4375 12.6667C15.4375 12.0175 15.9758 11.4792 16.625 11.4792H21.375C22.0242 11.4792 22.5625 12.0175 22.5625 12.6667C22.5625 13.3158 22.0242 13.8542 21.375 13.8542Z" fill="white"/>
<path d="M19 28.7058C21.9556 28.7058 24.3517 26.3098 24.3517 23.3542C24.3517 20.3985 21.9556 18.0025 19 18.0025C16.0444 18.0025 13.6483 20.3985 13.6483 23.3542C13.6483 26.3098 16.0444 28.7058 19 28.7058Z" fill="white"/>
</svg>
